<svg width="36" height="36" viewBox="0 0 36 36" fill="none" xmlns="http://www.w3.org/2000/svg">
<rect width="36" height="36" rx="4" fill="#C7C9D9"/>
<path d="M19.88 16.2066L12.9733 12C12.6667 11.8266 12.2333 12.2466 12.4 12.56L16.5 19.6L23.54 23.7C23.6195 23.7288 23.7056 23.7341 23.788 23.7153C23.8704 23.6964 23.9457 23.6543 24.0048 23.5938C24.0638 23.5333 24.1042 23.4571 24.1211 23.3742C24.138 23.2914 24.1307 23.2054 24.1 23.1266L19.88 16.2066ZM17.2133 18.8733L19.2133 16.8733L22.2467 21.8333L17.2133 18.8733Z" fill="#3A3A3C"/>
<path d="M18 7.33337C15.8904 7.33337 13.8281 7.95896 12.074 9.13103C10.3198 10.3031 8.95267 11.969 8.14533 13.9181C7.338 15.8672 7.12676 18.0119 7.53834 20.081C7.94991 22.1501 8.96581 24.0508 10.4576 25.5425C11.9493 27.0343 13.85 28.0502 15.9191 28.4618C17.9882 28.8733 20.1329 28.6621 22.082 27.8548C24.0311 27.0474 25.697 25.6802 26.8691 23.9261C28.0411 22.172 28.6667 20.1097 28.6667 18C28.6667 15.1711 27.5429 12.458 25.5425 10.4576C23.5421 8.45718 20.829 7.33337 18 7.33337ZM18.6667 27.3V25.6867H17.3334V27.3C15.0974 27.1378 12.9945 26.1761 11.4092 24.5908C9.82399 23.0056 8.86231 20.9027 8.70005 18.6667H10.3134V17.3334H8.70005C8.86231 15.0974 9.82399 12.9945 11.4092 11.4092C12.9945 9.82398 15.0974 8.8623 17.3334 8.70004V10.3134H18.6667V8.70004C20.9027 8.8623 23.0056 9.82398 24.5909 11.4092C26.1761 12.9945 27.1378 15.0974 27.3 17.3334H25.6867V18.6667H27.3C27.1378 20.9027 26.1761 23.0056 24.5909 24.5908C23.0056 26.1761 20.9027 27.1378 18.6667 27.3Z" fill="#3A3A3C"/>
</svg>
