<svg width="40" height="40" viewBox="0 0 40 40" fill="none" xmlns="http://www.w3.org/2000/svg">
<rect x="2.75" y="2.75" width="34.5" height="34.5" rx="3.25" fill="#F2F2F5" stroke="#E3EDFF" stroke-width="1.5"/>
<rect x="1" y="1" width="38" height="38" rx="5" stroke="#99BBFF" stroke-width="2"/>
<path d="M21.88 18.2066L14.9733 14C14.6667 13.8266 14.2333 14.2466 14.4 14.56L18.5 21.6L25.54 25.7C25.6195 25.7288 25.7056 25.7341 25.788 25.7153C25.8704 25.6964 25.9457 25.6543 26.0048 25.5938C26.0638 25.5333 26.1042 25.4571 26.1211 25.3742C26.138 25.2914 26.1307 25.2054 26.1 25.1266L21.88 18.2066ZM19.2133 20.8733L21.2133 18.8733L24.2467 23.8333L19.2133 20.8733Z" fill="#3A3A3C"/>
<path d="M20 9.33337C17.8904 9.33337 15.8281 9.95896 14.074 11.131C12.3198 12.3031 10.9527 13.969 10.1453 15.9181C9.338 17.8672 9.12676 20.0119 9.53834 22.081C9.94991 24.1501 10.9658 26.0508 12.4576 27.5425C13.9493 29.0343 15.85 30.0502 17.9191 30.4618C19.9882 30.8733 22.1329 30.6621 24.082 29.8548C26.0311 29.0474 27.697 27.6802 28.8691 25.9261C30.0411 24.172 30.6667 22.1097 30.6667 20C30.6667 17.1711 29.5429 14.458 27.5425 12.4576C25.5421 10.4572 22.829 9.33337 20 9.33337ZM20.6667 29.3V27.6867H19.3334V29.3C17.0974 29.1378 14.9945 28.1761 13.4092 26.5908C11.824 25.0056 10.8623 22.9027 10.7 20.6667H12.3134V19.3334H10.7C10.8623 17.0974 11.824 14.9945 13.4092 13.4092C14.9945 11.824 17.0974 10.8623 19.3334 10.7V12.3134H20.6667V10.7C22.9027 10.8623 25.0056 11.824 26.5909 13.4092C28.1761 14.9945 29.1378 17.0974 29.3 19.3334H27.6867V20.6667H29.3C29.1378 22.9027 28.1761 25.0056 26.5909 26.5908C25.0056 28.1761 22.9027 29.1378 20.6667 29.3Z" fill="#3A3A3C"/>
</svg>
