<svg width="21" height="24" viewBox="0 0 21 21" fill="none" xmlns="http://www.w3.org/2000/svg">
<path d="M20.054 19.2234L14.147 13.2785C15.3246 11.873 15.9134 10.2522 15.9134 8.41621C15.9134 7.03603 15.5747 5.76348 14.8973 4.59855C14.2199 3.43363 13.2955 2.51245 12.1243 1.83502C10.953 1.15759 9.68045 0.818874 8.30659 0.818874C6.93274 0.818874 5.66335 1.15759 4.49843 1.83502C3.3335 2.51245 2.41232 3.43363 1.73489 4.59855C1.05746 5.76348 0.71875 7.03603 0.71875 8.41621C0.71875 9.7964 1.05746 11.069 1.73489 12.2339C2.41232 13.3988 3.3335 14.32 4.49843 14.9974C5.66335 15.6748 6.93591 16.0136 8.31609 16.0136C10.2028 16.0136 11.8615 15.3931 13.2923 14.1522L19.1803 20.0781C19.3069 20.2048 19.4525 20.2681 19.6171 20.2681C19.7817 20.2681 19.9242 20.2079 20.0445 20.0876C20.1648 19.9673 20.2249 19.8217 20.2249 19.6508C20.2249 19.4798 20.1679 19.3374 20.054 19.2234ZM8.31609 14.817C7.15117 14.817 6.07804 14.5289 5.09672 13.9528C4.11539 13.3766 3.33983 12.5979 2.77003 11.6166C2.20023 10.6353 1.91533 9.56848 1.91533 8.41621C1.91533 7.26395 2.20023 6.19716 2.77003 5.21584C3.33983 4.23451 4.11539 3.45578 5.09672 2.87965C6.07804 2.30352 7.148 2.01546 8.30659 2.01546C9.46519 2.01546 10.5351 2.30352 11.5165 2.87965C12.4978 3.45578 13.2734 4.23451 13.8432 5.21584C14.413 6.19716 14.6979 7.26395 14.6979 8.41621C14.6979 8.91004 14.6409 9.39754 14.5269 9.8787C14.413 10.3599 14.2515 10.8094 14.0426 11.2272C13.8337 11.6451 13.5836 12.0408 13.2923 12.4143C13.0011 12.7879 12.6719 13.1202 12.3047 13.4115C11.9375 13.7027 11.545 13.9528 11.1271 14.1617C10.7093 14.3706 10.2597 14.5321 9.77858 14.646C9.29741 14.76 8.80992 14.817 8.31609 14.817Z" fill="#212121"/>
</svg>
