<svg width="24" height="24" viewBox="0 0 24 24" fill="none" xmlns="http://www.w3.org/2000/svg">
<path d="M12.0001 18.26C12.4898 18.26 12.8867 17.8631 12.8867 17.3734C12.8867 16.8837 12.4898 16.4867 12.0001 16.4867C11.5104 16.4867 11.1134 16.8837 11.1134 17.3734C11.1134 17.8631 11.5104 18.26 12.0001 18.26Z" fill="#FF3B3B"/>
<path d="M12 15.0733C11.8232 15.0733 11.6537 15.0031 11.5286 14.8781C11.4036 14.753 11.3334 14.5835 11.3334 14.4067V6.40666C11.3334 6.22985 11.4036 6.06028 11.5286 5.93525C11.6537 5.81023 11.8232 5.73999 12 5.73999C12.1769 5.73999 12.3464 5.81023 12.4714 5.93525C12.5965 6.06028 12.6667 6.22985 12.6667 6.40666V14.4067C12.6667 14.5835 12.5965 14.753 12.4714 14.8781C12.3464 15.0031 12.1769 15.0733 12 15.0733Z" fill="#FF3B3B"/>
<path d="M12 22.6667C9.89038 22.6667 7.82809 22.0411 6.07396 20.8691C4.31984 19.697 2.95267 18.0311 2.14533 16.082C1.338 14.1329 1.12676 11.9882 1.53834 9.91908C1.94991 7.84995 2.96581 5.94933 4.45757 4.45757C5.94933 2.96581 7.84995 1.94991 9.91908 1.53834C11.9882 1.12676 14.1329 1.338 16.082 2.14533C18.0311 2.95267 19.697 4.31984 20.8691 6.07396C22.0411 7.82809 22.6667 9.89038 22.6667 12C22.6667 14.829 21.5429 17.5421 19.5425 19.5425C17.5421 21.5429 14.829 22.6667 12 22.6667ZM12 2.66671C10.1541 2.66671 8.34958 3.2141 6.81472 4.23966C5.27986 5.26522 4.08359 6.72289 3.37717 8.42833C2.67075 10.1338 2.48592 12.0104 2.84605 13.8209C3.20618 15.6314 4.09509 17.2944 5.40038 18.5997C6.70567 19.905 8.36871 20.7939 10.1792 21.154C11.9897 21.5142 13.8663 21.3293 15.5718 20.6229C17.2772 19.9165 18.7349 18.7202 19.7604 17.1854C20.786 15.6505 21.3334 13.846 21.3334 12C21.3334 9.52469 20.35 7.15072 18.5997 5.40038C16.8494 3.65004 14.4754 2.66671 12 2.66671Z" fill="#FF3B3B"/>
</svg>
