<svg width="24" height="24" viewBox="0 0 24 24" fill="none" xmlns="http://www.w3.org/2000/svg">
<path d="M11.98 7.89999C12.4954 7.89999 12.9133 7.48212 12.9133 6.96666C12.9133 6.45119 12.4954 6.03333 11.98 6.03333C11.4645 6.03333 11.0466 6.45119 11.0466 6.96666C11.0466 7.48212 11.4645 7.89999 11.98 7.89999Z" fill="#0063F7"/>
<path d="M14 16.6667H12.6667V9.40002H10.6667C10.4899 9.40002 10.3203 9.47026 10.1953 9.59529C10.0703 9.72031 10 9.88988 10 10.0667C10 10.2435 10.0703 10.4131 10.1953 10.5381C10.3203 10.6631 10.4899 10.7334 10.6667 10.7334H11.3334V16.6667H10C9.82323 16.6667 9.65366 16.7369 9.52864 16.862C9.40361 16.987 9.33337 17.1565 9.33337 17.3334C9.33337 17.5102 9.40361 17.6797 9.52864 17.8048C9.65366 17.9298 9.82323 18 10 18H14C14.1769 18 14.3464 17.9298 14.4714 17.8048C14.5965 17.6797 14.6667 17.5102 14.6667 17.3334C14.6667 17.1565 14.5965 16.987 14.4714 16.862C14.3464 16.7369 14.1769 16.6667 14 16.6667Z" fill="#0063F7"/>
<path d="M12 22.6667C9.89038 22.6667 7.82809 22.0411 6.07396 20.8691C4.31984 19.697 2.95267 18.0311 2.14533 16.082C1.338 14.1329 1.12676 11.9882 1.53834 9.91908C1.94991 7.84995 2.96581 5.94933 4.45757 4.45757C5.94933 2.96581 7.84995 1.94991 9.91908 1.53834C11.9882 1.12676 14.1329 1.338 16.082 2.14533C18.0311 2.95267 19.697 4.31984 20.8691 6.07396C22.0411 7.82809 22.6667 9.89038 22.6667 12C22.6667 14.829 21.5429 17.5421 19.5425 19.5425C17.5421 21.5429 14.829 22.6667 12 22.6667ZM12 2.66671C10.1541 2.66671 8.34958 3.2141 6.81472 4.23966C5.27986 5.26522 4.08359 6.72289 3.37717 8.42833C2.67075 10.1338 2.48592 12.0104 2.84605 13.8209C3.20618 15.6314 4.09509 17.2944 5.40038 18.5997C6.70567 19.905 8.36871 20.7939 10.1792 21.154C11.9897 21.5142 13.8663 21.3293 15.5718 20.6229C17.2772 19.9165 18.7349 18.7202 19.7604 17.1854C20.786 15.6505 21.3334 13.846 21.3334 12C21.3334 9.52469 20.35 7.15072 18.5997 5.40038C16.8494 3.65004 14.4754 2.66671 12 2.66671Z" fill="#0063F7"/>
</svg>
