<svg width="24" height="24" viewBox="0 0 24 24" fill="none" xmlns="http://www.w3.org/2000/svg">
<path d="M12 1.33337C9.89038 1.33337 7.82809 1.95896 6.07396 3.13103C4.31984 4.3031 2.95267 5.96901 2.14533 7.91808C1.338 9.86716 1.12676 12.0119 1.53834 14.081C1.94991 16.1501 2.96581 18.0508 4.45757 19.5425C5.94933 21.0343 7.84995 22.0502 9.91908 22.4618C11.9882 22.8733 14.1329 22.6621 16.082 21.8548C18.0311 21.0474 19.697 19.6802 20.8691 17.9261C22.0411 16.172 22.6667 14.1097 22.6667 12C22.6667 9.17106 21.5429 6.45796 19.5425 4.45757C17.5421 2.45718 14.829 1.33337 12 1.33337ZM12 21.3334C10.1541 21.3334 8.34958 20.786 6.81472 19.7604C5.27986 18.7349 4.08359 17.2772 3.37717 15.5718C2.67075 13.8663 2.48592 11.9897 2.84605 10.1792C3.20618 8.36871 4.09509 6.70567 5.40038 5.40038C6.70567 4.09509 8.36871 3.20617 10.1792 2.84604C11.9897 2.48592 13.8663 2.67075 15.5718 3.37717C17.2772 4.08358 18.7349 5.27986 19.7604 6.81472C20.786 8.34958 21.3334 10.1541 21.3334 12C21.3334 14.4754 20.35 16.8494 18.5997 18.5997C16.8494 20.35 14.4754 21.3334 12 21.3334Z" fill="#06C270"/>
<path d="M18.6667 8.06666C18.5418 7.9425 18.3728 7.8728 18.1967 7.8728C18.0206 7.8728 17.8516 7.9425 17.7267 8.06666L10.3267 15.4333L6.32671 11.4333C6.20471 11.3016 6.03538 11.2237 5.85597 11.2169C5.67656 11.21 5.50176 11.2747 5.37004 11.3967C5.23831 11.5187 5.16045 11.688 5.15357 11.8674C5.1467 12.0468 5.21137 12.2216 5.33337 12.3533L10.3267 17.3333L18.6667 9.01333C18.7292 8.95136 18.7788 8.87762 18.8126 8.79638C18.8465 8.71514 18.8639 8.62801 18.8639 8.54C18.8639 8.45199 18.8465 8.36485 18.8126 8.28361C18.7788 8.20237 18.7292 8.12864 18.6667 8.06666Z" fill="#06C270"/>
</svg>
