<svg width="24" height="24" viewBox="0 0 24 24" fill="none" xmlns="http://www.w3.org/2000/svg">
<path d="M12.0001 18.26C12.4898 18.26 12.8867 17.8631 12.8867 17.3734C12.8867 16.8837 12.4898 16.4867 12.0001 16.4867C11.5104 16.4867 11.1134 16.8837 11.1134 17.3734C11.1134 17.8631 11.5104 18.26 12.0001 18.26Z" fill="#FFCC00"/>
<path d="M12 15.0733C11.8232 15.0733 11.6537 15.0031 11.5286 14.8781C11.4036 14.753 11.3334 14.5835 11.3334 14.4067V6.40666C11.3334 6.22985 11.4036 6.06028 11.5286 5.93525C11.6537 5.81023 11.8232 5.73999 12 5.73999C12.1769 5.73999 12.3464 5.81023 12.4714 5.93525C12.5965 6.06028 12.6667 6.22985 12.6667 6.40666V14.4067C12.6667 14.5835 12.5965 14.753 12.4714 14.8781C12.3464 15.0031 12.1769 15.0733 12 15.0733Z" fill="#FFCC00"/>
<path d="M10.0414 1.12074C10.2267 0.783511 10.4992 0.502264 10.8304 0.306415C11.1616 0.110566 11.5393 0.00731015 11.9241 0.00744642C12.3089 0.0075827 12.6866 0.111106 13.0176 0.30719C13.3487 0.503274 13.621 0.784713 13.806 1.12207L23.066 18.1621C23.2436 18.489 23.3332 18.8565 23.326 19.2285C23.3187 19.6005 23.2149 19.9642 23.0248 20.284C22.8346 20.6038 22.5646 20.8686 22.2412 21.0526C21.9178 21.2366 21.5521 21.3333 21.18 21.3334H2.68138C2.30514 21.3418 1.93329 21.2512 1.60312 21.0706C1.27295 20.8899 0.996068 20.6257 0.800232 20.3043C0.604396 19.983 0.496489 19.6157 0.48733 19.2395C0.478172 18.8633 0.568083 18.4913 0.74805 18.1607L10.0414 1.12074ZM1.92005 18.7987C1.85136 18.925 1.81737 19.0672 1.82153 19.2109C1.82569 19.3546 1.86786 19.4946 1.94374 19.6167C2.01962 19.7388 2.12651 19.8386 2.25351 19.9059C2.3805 19.9733 2.52308 20.0058 2.66672 20.0001H21.18C21.321 20 21.4596 19.9633 21.5821 19.8935C21.7046 19.8237 21.8069 19.7233 21.8789 19.6021C21.9509 19.4809 21.9901 19.3431 21.9928 19.2021C21.9954 19.0611 21.9614 18.9219 21.894 18.7981L12.636 1.76141C12.5659 1.63392 12.4628 1.5276 12.3375 1.45353C12.2123 1.37946 12.0694 1.34035 11.9239 1.34029C11.7784 1.34022 11.6355 1.37919 11.5102 1.45315C11.3849 1.5271 11.2817 1.63332 11.2114 1.76074L1.91938 18.7987H1.92005Z" fill="#FFCC00"/>
</svg>
