<svg width="24" height="24" viewBox="0 0 24 24" fill="none" xmlns="http://www.w3.org/2000/svg">
<path d="M12 1.12502C12.258 1.12502 12.4995 1.17602 12.726 1.27802C12.9498 1.36959 13.1532 1.50482 13.3242 1.67582C13.4952 1.84683 13.6304 2.05019 13.722 2.27402C13.824 2.49902 13.875 2.74202 13.875 3.00002C13.875 3.25802 13.824 3.49952 13.722 3.72602C13.6305 3.94994 13.4954 4.1534 13.3245 4.32452C13.1518 4.4966 12.9489 4.63541 12.726 4.73402C12.4957 4.8286 12.2489 4.87653 12 4.87502C11.742 4.87502 11.5005 4.82852 11.274 4.73402C10.8248 4.53435 10.4657 4.17519 10.266 3.72602C10.1714 3.49574 10.1235 3.24897 10.125 3.00002C10.125 2.74202 10.1715 2.50052 10.266 2.27402C10.3665 2.04752 10.5045 1.84802 10.6755 1.67552C10.848 1.50452 11.0475 1.37102 11.274 1.27802C11.5023 1.17587 11.7498 1.1237 12 1.12502ZM3.94947 5.63702C3.9474 5.30725 4.04321 4.98427 4.22478 4.70898C4.40635 4.43369 4.66552 4.21845 4.96947 4.09052C5.17768 3.9978 5.40305 3.94988 5.63097 3.94988C5.85889 3.94988 6.08427 3.9978 6.29248 4.09052C6.49648 4.17602 6.67197 4.29752 6.82047 4.45352C6.97647 4.60202 7.09797 4.77752 7.18348 4.98002C7.27642 5.18844 7.32445 5.41408 7.32445 5.64227C7.32445 5.87047 7.27642 6.09611 7.18348 6.30452C7.01306 6.7057 6.69365 7.02511 6.29248 7.19552C5.86795 7.36868 5.3925 7.36868 4.96797 7.19552C4.76871 7.11207 4.58626 6.99315 4.42947 6.84452C4.2807 6.6873 4.16177 6.50432 4.07847 6.30452C3.99234 6.09257 3.94852 5.86581 3.94947 5.63702ZM2.99997 10.5C3.19711 10.4965 3.39279 10.5343 3.57441 10.6111C3.75604 10.6878 3.91957 10.8017 4.05447 10.9455C4.19826 11.0804 4.31219 11.244 4.38892 11.4256C4.46566 11.6072 4.50348 11.8029 4.49997 12C4.5018 12.201 4.46196 12.4002 4.38297 12.585C4.22748 12.9419 3.94302 13.2269 3.58647 13.383C3.40119 13.4622 3.20147 13.5021 2.99997 13.5C2.79899 13.5018 2.5998 13.462 2.41497 13.383C2.23774 13.3063 2.0753 13.1992 1.93497 13.0665C1.80176 12.9263 1.69413 12.7639 1.61697 12.5865C1.53778 12.4012 1.49794 12.2015 1.49997 12C1.49771 11.804 1.53508 11.6096 1.60983 11.4284C1.68458 11.2472 1.79517 11.0829 1.93497 10.9455C2.07271 10.8025 2.23825 10.6892 2.4214 10.6126C2.60456 10.536 2.80145 10.4977 2.99997 10.5ZM4.32447 18.363C4.32663 18.1064 4.40297 17.8558 4.54429 17.6416C4.68561 17.4273 4.88589 17.2585 5.12098 17.1555C5.28213 17.0864 5.45564 17.0508 5.63097 17.0508C5.80631 17.0508 5.97982 17.0864 6.14097 17.1555C6.30597 17.226 6.44547 17.3205 6.56247 17.4375C6.74549 17.6235 6.86979 17.8591 6.91993 18.1151C6.97007 18.3712 6.94383 18.6363 6.84448 18.8775C6.70404 19.1944 6.44552 19.4439 6.12392 19.573C5.80233 19.7022 5.44303 19.7007 5.12247 19.569C4.81443 19.4321 4.56769 19.1865 4.42947 18.879C4.35949 18.716 4.32375 18.5404 4.32447 18.363ZM12 19.875C12.312 19.875 12.5775 19.9845 12.7965 20.2035C12.9027 20.3068 12.9867 20.4308 13.0432 20.5678C13.0997 20.7047 13.1275 20.8519 13.125 21C13.1275 21.1482 13.0997 21.2953 13.0432 21.4323C12.9867 21.5693 12.9027 21.6932 12.7965 21.7965C12.6932 21.9028 12.5692 21.9868 12.4322 22.0433C12.2953 22.0998 12.1481 22.1276 12 22.125C11.8518 22.1276 11.7047 22.0998 11.5677 22.0433C11.4307 21.9868 11.3068 21.9028 11.2035 21.7965C11.0972 21.6932 11.0132 21.5693 10.9567 21.4323C10.9002 21.2953 10.8724 21.1482 10.875 21C10.875 20.688 10.9845 20.4225 11.2035 20.2035C11.3068 20.0973 11.4307 20.0133 11.5677 19.9568C11.7047 19.9003 11.8518 19.8725 12 19.875ZM17.4255 18.363C17.4255 18.0975 17.5155 17.8755 17.6955 17.6955C17.8755 17.5155 18.0975 17.4255 18.363 17.4255C18.6285 17.4255 18.852 17.5155 19.0305 17.6955C19.2105 17.8755 19.3005 18.0975 19.3005 18.363C19.3005 18.6285 19.2105 18.852 19.0305 19.0305C18.9435 19.1187 18.8394 19.1881 18.7246 19.2346C18.6099 19.281 18.4868 19.3034 18.363 19.3005C18.2392 19.3034 18.1161 19.281 18.0013 19.2346C17.8865 19.1881 17.7824 19.1187 17.6955 19.0305C17.6073 18.9436 17.5379 18.8395 17.4914 18.7247C17.445 18.6099 17.4226 18.4868 17.4255 18.363ZM21 11.25C21.0985 11.2489 21.1962 11.2681 21.287 11.3063C21.3778 11.3444 21.4598 11.4009 21.528 11.472C21.5991 11.5402 21.6556 11.6222 21.6937 11.713C21.7319 11.8038 21.7511 11.9015 21.75 12C21.7511 12.0985 21.7319 12.1962 21.6937 12.287C21.6556 12.3779 21.5991 12.4599 21.528 12.528C21.4598 12.5992 21.3778 12.6556 21.287 12.6938C21.1962 12.732 21.0985 12.7511 21 12.75C20.9015 12.7511 20.8038 12.732 20.7129 12.6938C20.6221 12.6556 20.5401 12.5992 20.472 12.528C20.4008 12.4599 20.3444 12.3779 20.3062 12.287C20.268 12.1962 20.2489 12.0985 20.25 12C20.2489 11.9015 20.268 11.8038 20.3062 11.713C20.3444 11.6222 20.4008 11.5402 20.472 11.472C20.5401 11.4009 20.6221 11.3444 20.7129 11.3063C20.8038 11.2681 20.9015 11.2489 21 11.25ZM18.363 3.57452C18.645 3.57452 18.9105 3.62852 19.1595 3.73952C19.6534 3.95323 20.0476 4.34686 20.262 4.84052C20.3715 5.08952 20.427 5.35502 20.427 5.63552C20.427 5.91752 20.3715 6.18302 20.262 6.43352C20.0476 6.92719 19.6534 7.32082 19.1595 7.53452C18.9089 7.64427 18.6381 7.70047 18.3645 7.69952C18.0825 7.69952 17.817 7.64402 17.5665 7.53452C17.0733 7.32025 16.6797 6.92675 16.4655 6.43352C16.3555 6.18244 16.2993 5.91113 16.3005 5.63702C16.3005 5.35502 16.356 5.08952 16.4655 4.84052C16.6792 4.34656 17.0728 3.95241 17.5665 3.73802C17.817 3.62852 18.0825 3.57302 18.363 3.57302V3.57452Z" fill="#3377FF"/>
</svg>
