<svg width="24" height="24" viewBox="0 0 24 24" fill="none" xmlns="http://www.w3.org/2000/svg">
<path d="M9.62668 21.2933C8.70876 21.2926 7.80969 21.0327 7.033 20.5435C6.2563 20.0543 5.63357 19.3557 5.23649 18.5281C4.83941 17.7005 4.68414 16.7776 4.78856 15.8656C4.89297 14.9537 5.25282 14.0897 5.82668 13.3733L4.88002 12.4266C3.87797 13.6138 3.35811 15.1338 3.42331 16.686C3.48852 18.2381 4.13404 19.7092 5.23212 20.8081C6.33019 21.9071 7.80081 22.5537 9.3529 22.6201C10.905 22.6865 12.4254 22.1678 13.6133 21.1666L12.6667 20.22C11.805 20.9132 10.7326 21.2918 9.62668 21.2933Z" fill="#3377FF"/>
<path d="M16.9066 1.11329C16.3628 1.11197 15.8309 1.27211 15.3782 1.57341C14.9255 1.87471 14.5724 2.30361 14.3637 2.80577C14.155 3.30793 14.1 3.86074 14.2058 4.39416C14.3115 4.92758 14.5733 5.41761 14.9578 5.80213C15.3423 6.18666 15.8324 6.44839 16.3658 6.55416C16.8992 6.65993 17.452 6.60498 17.9542 6.39626C18.4563 6.18755 18.8852 5.83447 19.1865 5.38176C19.4878 4.92905 19.648 4.39709 19.6466 3.85329C19.6449 3.12714 19.3556 2.43123 18.8422 1.91776C18.3287 1.40429 17.6328 1.11505 16.9066 1.11329ZM16.9066 5.26662C16.6268 5.26794 16.3529 5.18617 16.1196 5.03168C15.8863 4.87719 15.7041 4.65692 15.5962 4.39878C15.4882 4.14065 15.4592 3.85627 15.513 3.58167C15.5668 3.30707 15.7009 3.05462 15.8982 2.85629C16.0956 2.65797 16.3475 2.5227 16.6218 2.46762C16.8961 2.41254 17.1806 2.44014 17.4393 2.54691C17.6979 2.65369 17.9191 2.83483 18.0747 3.06739C18.2302 3.29996 18.3133 3.57348 18.3133 3.85329C18.3133 4.22698 18.1653 4.58546 17.9017 4.85032C17.6381 5.11518 17.2803 5.26486 16.9066 5.26662Z" fill="#3377FF"/>
<path d="M17.7067 12.1199H14.3734C14.3189 12.1244 14.2651 12.1356 14.2134 12.1532L16.2734 9.78658C16.4596 9.57774 16.597 9.33009 16.6757 9.06158C16.7544 8.79307 16.7724 8.51041 16.7283 8.2341C16.6843 7.95778 16.5794 7.69472 16.4211 7.46396C16.2629 7.23321 16.0553 7.04054 15.8134 6.89992L10.4801 3.83325C10.3646 3.76638 10.2316 3.73572 10.0985 3.74522C9.96541 3.75473 9.83821 3.80398 9.73339 3.88658L6.55339 6.38658C6.48294 6.44068 6.42402 6.50831 6.38008 6.5855C6.33614 6.66269 6.30807 6.74788 6.29751 6.83607C6.28695 6.92426 6.29412 7.01366 6.3186 7.09904C6.34308 7.18442 6.38437 7.26405 6.44005 7.33325C6.50283 7.4127 6.58289 7.47681 6.67415 7.5207C6.7654 7.5646 6.86546 7.58713 6.96672 7.58658C7.11402 7.58612 7.25702 7.53689 7.37339 7.44658L10.2201 5.21991L12.2934 6.39991L8.90672 10.2532C7.80915 10.3829 6.76634 10.8041 5.88672 11.4732L6.84005 12.4266C7.77759 11.7723 8.91555 11.4689 10.0544 11.5698C11.1932 11.6706 12.2602 12.1691 13.0682 12.9779C13.8762 13.7867 14.3737 14.8542 14.4734 15.9931C14.5731 17.132 14.2686 18.2697 13.6134 19.2066L14.5601 20.1599C15.2842 19.211 15.718 18.0727 15.8091 16.8825C15.9002 15.6924 15.6446 14.5013 15.0734 13.4532H16.9534L16.4401 17.7932C16.4298 17.8804 16.4369 17.9687 16.4609 18.0531C16.4849 18.1375 16.5253 18.2163 16.5798 18.285C16.6343 18.3538 16.7018 18.4111 16.7785 18.4537C16.8552 18.4963 16.9396 18.5233 17.0267 18.5332H17.1067C17.2705 18.5344 17.429 18.4753 17.552 18.3671C17.6749 18.2589 17.7537 18.1092 17.7734 17.9466L18.3734 12.8666C18.3839 12.7731 18.3745 12.6784 18.3457 12.5887C18.317 12.4991 18.2696 12.4166 18.2067 12.3466C18.1442 12.2755 18.0673 12.2185 17.9811 12.1794C17.8949 12.1403 17.8014 12.12 17.7067 12.1199ZM13.4601 7.07991L15.1401 8.05325C15.2122 8.09333 15.2739 8.14981 15.3203 8.21813C15.3666 8.28645 15.3962 8.36471 15.4067 8.44658C15.4214 8.52835 15.417 8.61239 15.3938 8.69217C15.3707 8.77196 15.3295 8.84533 15.2734 8.90658L13.1667 11.3332C12.421 10.8064 11.5668 10.4533 10.6667 10.2999L13.4601 7.07991Z" fill="#3377FF"/>
</svg>
