<svg width="24" height="24" viewBox="0 0 24 24" fill="none" xmlns="http://www.w3.org/2000/svg">
<path d="M13.88 10.2066L6.97334 5.99997C6.66667 5.82664 6.23334 6.24664 6.4 6.55997L10.5 13.6L17.54 17.7C17.6195 17.7288 17.7056 17.7341 17.788 17.7153C17.8704 17.6964 17.9457 17.6543 18.0048 17.5938C18.0638 17.5333 18.1042 17.4571 18.1211 17.3742C18.138 17.2914 18.1307 17.2054 18.1 17.1266L13.88 10.2066ZM11.2133 12.8733L13.2133 10.8733L16.2467 15.8333L11.2133 12.8733Z" fill="#3377FF"/>
<path d="M12 1.33337C9.89038 1.33337 7.82809 1.95896 6.07396 3.13103C4.31984 4.3031 2.95267 5.96901 2.14533 7.91808C1.338 9.86716 1.12676 12.0119 1.53834 14.081C1.94991 16.1501 2.96581 18.0508 4.45757 19.5425C5.94933 21.0343 7.84995 22.0502 9.91908 22.4618C11.9882 22.8733 14.1329 22.6621 16.082 21.8548C18.0311 21.0474 19.697 19.6802 20.8691 17.9261C22.0411 16.172 22.6667 14.1097 22.6667 12C22.6667 9.17106 21.5429 6.45796 19.5425 4.45757C17.5421 2.45718 14.829 1.33337 12 1.33337ZM12.6667 21.3V19.6867H11.3334V21.3C9.09738 21.1378 6.99449 20.1761 5.40924 18.5908C3.82399 17.0056 2.86231 14.9027 2.70005 12.6667H4.31338V11.3334H2.70005C2.86231 9.09737 3.82399 6.99448 5.40924 5.40923C6.99449 3.82398 9.09738 2.8623 11.3334 2.70004V4.31337H12.6667V2.70004C14.9027 2.8623 17.0056 3.82398 18.5909 5.40923C20.1761 6.99448 21.1378 9.09737 21.3 11.3334H19.6867V12.6667H21.3C21.1378 14.9027 20.1761 17.0056 18.5909 18.5908C17.0056 20.1761 14.9027 21.1378 12.6667 21.3Z" fill="#3377FF"/>
</svg>
