<svg width="24" height="24" viewBox="0 0 24 24" fill="none" xmlns="http://www.w3.org/2000/svg">
<path d="M17.3333 14.1C17.0239 13.551 16.6051 13.0713 16.1028 12.6906C15.6006 12.3099 15.0255 12.0363 14.4133 11.8867C13.8389 11.7144 13.2558 11.5719 12.6666 11.46V5.41337C13.838 5.53902 14.9556 5.97133 15.9066 6.66671C15.9723 6.72493 16.0488 6.76964 16.1317 6.7983C16.2147 6.82696 16.3024 6.83901 16.39 6.83374C16.4776 6.82848 16.5633 6.80602 16.6423 6.76764C16.7212 6.72925 16.7918 6.6757 16.85 6.61004C16.9082 6.54438 16.9529 6.46789 16.9816 6.38495C17.0102 6.30201 17.0223 6.21423 17.017 6.12664C17.0117 6.03904 16.9893 5.95334 16.9509 5.87442C16.9125 5.79551 16.859 5.72493 16.7933 5.66671C15.6002 4.74777 14.1674 4.19226 12.6666 4.06671V2.00004C12.6666 1.82323 12.5964 1.65366 12.4714 1.52864C12.3464 1.40361 12.1768 1.33337 12 1.33337C11.8232 1.33337 11.6536 1.40361 11.5286 1.52864C11.4035 1.65366 11.3333 1.82323 11.3333 2.00004V4.00004C8.39997 4.06671 6.77997 5.52671 6.28664 6.78671C5.95753 7.59807 5.92626 8.49974 6.19838 9.33195C6.47049 10.1642 7.02842 10.8732 7.7733 11.3334C8.85757 11.9943 10.072 12.4128 11.3333 12.56V18.6667C9.59285 18.5791 7.92556 17.9393 6.5733 16.84C6.51296 16.7682 6.43813 16.7099 6.35372 16.669C6.26931 16.6281 6.17722 16.6055 6.08346 16.6026C5.9897 16.5997 5.89638 16.6166 5.80961 16.6522C5.72284 16.6879 5.64457 16.7414 5.57991 16.8094C5.51525 16.8774 5.46566 16.9582 5.43439 17.0466C5.40311 17.1351 5.39085 17.2291 5.39841 17.3226C5.40596 17.4161 5.43317 17.507 5.47824 17.5892C5.52331 17.6715 5.58524 17.7433 5.65997 17.8C7.25459 19.1426 9.25047 19.9165 11.3333 20V22C11.3333 22.1769 11.4035 22.3464 11.5286 22.4714C11.6536 22.5965 11.8232 22.6667 12 22.6667C12.1768 22.6667 12.3464 22.5965 12.4714 22.4714C12.5964 22.3464 12.6666 22.1769 12.6666 22V20C14.5466 19.8734 16.7133 19.2734 17.5333 16.8267C17.6817 16.3815 17.7404 15.9114 17.706 15.4434C17.6717 14.9754 17.545 14.5188 17.3333 14.1ZM8.52664 10.2134C8.03984 9.9236 7.67237 9.46968 7.49029 8.93321C7.30821 8.39675 7.32346 7.81293 7.5333 7.28671C7.60664 7.08671 8.3533 5.41337 11.3333 5.33337V11.2C10.3388 11.0721 9.38245 10.7359 8.52664 10.2134ZM16.2666 16.3734C15.7866 17.8 14.72 18.4867 12.6666 18.64V12.82C13.0933 12.9134 13.5333 13.02 14 13.16C14.4408 13.2602 14.8567 13.4489 15.2223 13.7148C15.5879 13.9807 15.8956 14.3182 16.1266 14.7067C16.3881 15.223 16.4383 15.8207 16.2666 16.3734Z" fill="#3377FF"/>
</svg>
