<svg width="24" height="24" viewBox="0 0 24 24" fill="none" xmlns="http://www.w3.org/2000/svg">
<path d="M20.6666 20.6666H3.33329C3.15648 20.6666 2.98691 20.7369 2.86189 20.8619C2.73686 20.9869 2.66663 21.1565 2.66663 21.3333C2.66663 21.5101 2.73686 21.6797 2.86189 21.8047C2.98691 21.9297 3.15648 22 3.33329 22H20.6666C20.8434 22 21.013 21.9297 21.138 21.8047C21.2631 21.6797 21.3333 21.5101 21.3333 21.3333C21.3333 21.1565 21.2631 20.9869 21.138 20.8619C21.013 20.7369 20.8434 20.6666 20.6666 20.6666Z" fill="#3377FF"/>
<path d="M12 19.6533L19.0733 12.58C19.1826 12.4524 19.2396 12.2884 19.2332 12.1206C19.2267 11.9528 19.1571 11.7936 19.0384 11.6749C18.9197 11.5562 18.7605 11.4866 18.5927 11.4802C18.4249 11.4737 18.2609 11.5307 18.1333 11.64L12.6667 17.1V3.33329C12.6667 3.15648 12.5964 2.98691 12.4714 2.86189C12.3464 2.73686 12.1768 2.66663 12 2.66663C11.8232 2.66663 11.6536 2.73686 11.5286 2.86189C11.4036 2.98691 11.3333 3.15648 11.3333 3.33329V17.1L5.87335 11.64C5.81358 11.5702 5.74004 11.5135 5.65733 11.4735C5.57462 11.4335 5.48453 11.411 5.39272 11.4074C5.3009 11.4039 5.20935 11.4194 5.1238 11.4529C5.03825 11.4864 4.96055 11.5372 4.89558 11.6022C4.83061 11.6672 4.77977 11.7449 4.74625 11.8304C4.71274 11.916 4.69727 12.0075 4.70081 12.0993C4.70436 12.1911 4.72685 12.2812 4.76686 12.3639C4.80688 12.4467 4.86356 12.5202 4.93335 12.58L12 19.6533Z" fill="#3377FF"/>
</svg>
