<svg width="24" height="24" viewBox="0 0 24 24" fill="none" xmlns="http://www.w3.org/2000/svg">
<path d="M20.6667 22.6666H8.66667C8.48986 22.6666 8.32029 22.5964 8.19526 22.4714C8.07024 22.3463 8 22.1768 8 22V7.33329C8 7.15648 8.07024 6.98691 8.19526 6.86189C8.32029 6.73686 8.48986 6.66663 8.66667 6.66663H20.6667C20.8435 6.66663 21.013 6.73686 21.1381 6.86189C21.2631 6.98691 21.3333 7.15648 21.3333 7.33329V22C21.3333 22.1768 21.2631 22.3463 21.1381 22.4714C21.013 22.5964 20.8435 22.6666 20.6667 22.6666ZM9.33333 21.3333H20V7.99996H9.33333V21.3333Z" fill="#3377FF"/>
<path d="M10.6666 10.6666H18.6666V12H10.6666V10.6666Z" fill="#3377FF"/>
<path d="M10.6666 13.3334H18.6666V14.6667H10.6666V13.3334Z" fill="#3377FF"/>
<path d="M10.6666 16H18.6666V17.3333H10.6666V16Z" fill="#3377FF"/>
<path d="M3.99996 16V2.66671H16V2.00004C16 1.82323 15.9297 1.65366 15.8047 1.52864C15.6797 1.40361 15.5101 1.33337 15.3333 1.33337H3.33329C3.15648 1.33337 2.98691 1.40361 2.86189 1.52864C2.73686 1.65366 2.66663 1.82323 2.66663 2.00004V16.6667C2.66663 16.8435 2.73686 17.0131 2.86189 17.1381C2.98691 17.2631 3.15648 17.3334 3.33329 17.3334H3.99996V16Z" fill="#3377FF"/>
<path d="M6.66671 18.6667V5.33333H18.6667V4.66667C18.6667 4.48986 18.5965 4.32029 18.4714 4.19526C18.3464 4.07024 18.1769 4 18 4H6.00004C5.82323 4 5.65366 4.07024 5.52864 4.19526C5.40361 4.32029 5.33337 4.48986 5.33337 4.66667V19.3333C5.33337 19.5101 5.40361 19.6797 5.52864 19.8047C5.65366 19.9298 5.82323 20 6.00004 20H6.66671V18.6667Z" fill="#3377FF"/>
</svg>
