<svg width="24" height="24" viewBox="0 0 24 24" fill="none" xmlns="http://www.w3.org/2000/svg">
<path d="M20 6.00005H10.9466L9.40663 3.88005C9.2825 3.71018 9.11994 3.5721 8.93224 3.47709C8.74453 3.38208 8.53701 3.33283 8.32663 3.33338H3.99996C3.64634 3.33338 3.3072 3.47385 3.05715 3.7239C2.8071 3.97395 2.66663 4.31309 2.66663 4.66671V19.3334C2.66663 19.687 2.8071 20.0261 3.05715 20.2762C3.3072 20.5262 3.64634 20.6667 3.99996 20.6667H20C20.3536 20.6667 20.6927 20.5262 20.9428 20.2762C21.1928 20.0261 21.3333 19.687 21.3333 19.3334V7.33338C21.3333 6.97976 21.1928 6.64062 20.9428 6.39057C20.6927 6.14052 20.3536 6.00005 20 6.00005ZM20 19.3334H3.99996V8.66671H8.87329C9.22691 8.66671 9.56605 8.52624 9.8161 8.27619C10.0662 8.02614 10.2066 7.687 10.2066 7.33338H3.99996V4.66671H8.32663L10.0666 7.06005C10.1287 7.14498 10.21 7.21402 10.3038 7.26152C10.3977 7.30903 10.5014 7.33365 10.6066 7.33338H20V19.3334Z" fill="#3377FF"/>
</svg>
