<svg width="24" height="24" viewBox="0 0 24 24" fill="none" xmlns="http://www.w3.org/2000/svg">
<g clip-path="url(#clip0_106_1089)">
<path fill-rule="evenodd" clip-rule="evenodd" d="M0.750366 1.35C0.750366 1.01863 1.019 0.75 1.35037 0.75H9.15037C9.48175 0.75 9.75037 1.01863 9.75037 1.35V9.15C9.75037 9.48138 9.48175 9.75 9.15037 9.75H1.35037C1.019 9.75 0.750366 9.48138 0.750366 9.15V1.35Z" stroke="#3377FF" stroke-width="1.5" stroke-linecap="round" stroke-linejoin="round"/>
<path fill-rule="evenodd" clip-rule="evenodd" d="M18.75 9.75C21.2353 9.75 23.25 7.73526 23.25 5.25C23.25 2.76472 21.2353 0.75 18.75 0.75C16.2647 0.75 14.25 2.76472 14.25 5.25C14.25 7.73526 16.2647 9.75 18.75 9.75Z" stroke="#3377FF" stroke-width="1.5" stroke-linecap="round" stroke-linejoin="round"/>
<path fill-rule="evenodd" clip-rule="evenodd" d="M18.786 13.9771C18.6335 13.6839 18.3305 13.5 18 13.5C17.6695 13.5 17.3665 13.6839 17.214 13.9771L12.877 21.7841C12.7103 22.0874 12.7077 22.4544 12.87 22.7601C13.0234 23.0575 13.3284 23.2459 13.663 23.2501H22.337C22.6716 23.2459 22.9766 23.0575 23.13 22.7601C23.2923 22.4544 23.2897 22.0874 23.123 21.7841L18.786 13.9771Z" stroke="#3377FF" stroke-width="1.5" stroke-linecap="round" stroke-linejoin="round"/>
<path fill-rule="evenodd" clip-rule="evenodd" d="M5.85096 13.0339C5.70316 12.8549 5.48313 12.7512 5.25096 12.7512C5.01879 12.7512 4.79875 12.8549 4.65096 13.0339L0.940951 17.4709C0.685861 17.7775 0.685861 18.2224 0.940951 18.5289L4.64895 22.9659C4.79675 23.145 5.01679 23.2486 5.24895 23.2486C5.48112 23.2486 5.70116 23.145 5.84895 22.9659L9.55693 18.5289C9.81205 18.2224 9.81205 17.7775 9.55693 17.4709L5.85096 13.0339Z" stroke="#3377FF" stroke-width="1.5" stroke-linecap="round" stroke-linejoin="round"/>
</g>
<defs>
<clipPath id="clip0_106_1089">
<rect width="24" height="24" fill="white"/>
</clipPath>
</defs>
</svg>
