<svg width="24" height="24" viewBox="0 0 24 24" fill="none" xmlns="http://www.w3.org/2000/svg">
<path d="M12 6.55334C11.8232 6.55334 11.6537 6.62358 11.5286 6.74861C11.4036 6.87363 11.3334 7.0432 11.3334 7.22001V13.0333L15.2667 15.7C15.4143 15.7938 15.5929 15.8258 15.7639 15.7891C15.9349 15.7524 16.0847 15.65 16.1809 15.504C16.2771 15.3579 16.312 15.1799 16.2782 15.0083C16.2444 14.8367 16.1445 14.6853 16 14.5867L12.6667 12.3267V7.22001C12.6667 7.0432 12.5965 6.87363 12.4714 6.74861C12.3464 6.62358 12.1769 6.55334 12 6.55334Z" fill="#3377FF"/>
<path d="M12 1.33337C10.0955 1.34004 8.22716 1.85365 6.58686 2.82143C4.94656 3.7892 3.5935 5.17625 2.66671 6.84004V3.46671C2.66671 3.2899 2.59647 3.12033 2.47145 2.9953C2.34642 2.87028 2.17685 2.80004 2.00004 2.80004C1.82323 2.80004 1.65366 2.87028 1.52864 2.9953C1.40361 3.12033 1.33337 3.2899 1.33337 3.46671V9.33337H7.20004C7.37685 9.33337 7.54642 9.26314 7.67145 9.13811C7.79647 9.01309 7.86671 8.84352 7.86671 8.66671C7.86671 8.4899 7.79647 8.32033 7.67145 8.1953C7.54642 8.07028 7.37685 8.00004 7.20004 8.00004H3.56671C4.40753 6.2255 5.78662 4.76137 7.50774 3.81599C9.22885 2.87062 11.2043 2.49217 13.1529 2.7345C15.1016 2.97683 16.9242 3.8276 18.3613 5.16573C19.7985 6.50387 20.7769 8.26119 21.1575 10.1876C21.5381 12.114 21.3014 14.1114 20.481 15.8955C19.6607 17.6796 18.2986 19.1596 16.5884 20.1247C14.8783 21.0898 12.9074 21.491 10.9561 21.2711C9.00475 21.0513 7.17249 20.2215 5.72004 18.9C5.65526 18.8409 5.57946 18.7952 5.497 18.7654C5.41453 18.7356 5.327 18.7223 5.2394 18.7263C5.1518 18.7304 5.06586 18.7516 4.98647 18.7888C4.90708 18.8261 4.8358 18.8786 4.77671 18.9434C4.71761 19.0082 4.67186 19.0839 4.64205 19.1664C4.61225 19.2489 4.59898 19.3364 4.603 19.424C4.60703 19.5116 4.62827 19.5976 4.6655 19.6769C4.70274 19.7563 4.75526 19.8276 4.82004 19.8867C6.10148 21.0536 7.64795 21.8907 9.32565 22.3255C11.0033 22.7604 12.7617 22.7798 14.4487 22.3823C16.1356 21.9847 17.7002 21.1821 19.0072 20.0439C20.3141 18.9056 21.3241 17.4661 21.9496 15.8497C22.5751 14.2334 22.7973 12.489 22.5971 10.7675C22.3968 9.04598 21.7801 7.39918 20.8002 5.96961C19.8204 4.54004 18.507 3.37075 16.9736 2.56293C15.4403 1.75511 13.7332 1.33308 12 1.33337Z" fill="#3377FF"/>
</svg>
