<svg width="24" height="24" viewBox="0 0 24 24" fill="none" xmlns="http://www.w3.org/2000/svg">
<g clip-path="url(#clip0_106_1050)">
<path d="M15.75 9.75H23.25" stroke="#3377FF" stroke-width="1.5" stroke-linecap="round" stroke-linejoin="round"/>
<path d="M15.75 3.75H23.25" stroke="#3377FF" stroke-width="1.5" stroke-linecap="round" stroke-linejoin="round"/>
<path fill-rule="evenodd" clip-rule="evenodd" d="M15.75 1.65C15.75 1.15294 16.153 0.75 16.65 0.75H22.35C22.847 0.75 23.25 1.15294 23.25 1.65V11.85C23.25 12.347 22.847 12.75 22.35 12.75H16.65C16.153 12.75 15.75 12.347 15.75 11.85V1.65Z" stroke="#3377FF" stroke-width="1.5" stroke-linecap="round" stroke-linejoin="round"/>
<path d="M0.75 8.25H12.75" stroke="#3377FF" stroke-width="1.5" stroke-linecap="round" stroke-linejoin="round"/>
<path d="M12.75 3.75H2.25C1.42157 3.75 0.75 4.42157 0.75 5.25V21.75C0.75 22.5784 1.42157 23.25 2.25 23.25H20.25C21.0784 23.25 21.75 22.5784 21.75 21.75V15.75" stroke="#3377FF" stroke-width="1.5" stroke-linecap="round" stroke-linejoin="round"/>
<path d="M6.46094 12C6.66806 12 6.83594 12.1679 6.83594 12.375C6.83594 12.5821 6.66806 12.75 6.46094 12.75C6.25382 12.75 6.08594 12.5821 6.08594 12.375C6.08594 12.1679 6.25382 12 6.46094 12Z" stroke="#3377FF" stroke-width="1.5" stroke-linecap="round" stroke-linejoin="round"/>
<path d="M17.9998 20.2499L14.1298 14.4129C13.9927 14.2065 13.7623 14.0814 13.5146 14.0785C13.2668 14.0758 13.0337 14.1957 12.8918 14.3989L10.8998 17.2499L9.65983 16.2609C9.49567 16.1298 9.28405 16.0736 9.07651 16.1059C8.86891 16.1382 8.68441 16.2561 8.56783 16.4309L6.02185 20.2499" stroke="#3377FF" stroke-width="1.5" stroke-linecap="round" stroke-linejoin="round"/>
<path d="M4.5 20.25H18" stroke="#3377FF" stroke-width="1.5" stroke-linecap="round" stroke-linejoin="round"/>
</g>
<defs>
<clipPath id="clip0_106_1050">
<rect width="24" height="24" fill="white"/>
</clipPath>
</defs>
</svg>
