<svg width="24" height="24" viewBox="0 0 24 24" fill="none" xmlns="http://www.w3.org/2000/svg">
<path d="M12 13.5001C11.9007 13.4995 11.8028 13.4767 11.7134 13.4334L1.71338 8.70674C1.59885 8.65291 1.50201 8.56758 1.43418 8.46074C1.36634 8.3539 1.33032 8.22996 1.33032 8.10341C1.33032 7.97686 1.36634 7.85292 1.43418 7.74608C1.50201 7.63924 1.59885 7.55391 1.71338 7.50008L11.7134 2.77341C11.802 2.73178 11.8988 2.71021 11.9967 2.71021C12.0947 2.71021 12.1914 2.73178 12.28 2.77341L22.28 7.50008C22.3946 7.55391 22.4914 7.63924 22.5593 7.74608C22.6271 7.85292 22.6631 7.97686 22.6631 8.10341C22.6631 8.22996 22.6271 8.3539 22.5593 8.46074C22.4914 8.56758 22.3946 8.65291 22.28 8.70674L12.28 13.4334C12.1927 13.4758 12.0971 13.4985 12 13.5001ZM3.56005 8.10674L12 12.1067L20.44 8.10674L12 4.12008L3.56005 8.10674Z" fill="#3377FF"/>
<path d="M12 17.44C11.9007 17.4394 11.8027 17.4167 11.7133 17.3734L1.71335 12.6667C1.63246 12.6305 1.5596 12.5786 1.499 12.514C1.43841 12.4493 1.39131 12.3733 1.36046 12.2902C1.3296 12.2072 1.31561 12.1188 1.3193 12.0303C1.32299 11.9418 1.34429 11.8549 1.38195 11.7747C1.41961 11.6945 1.47288 11.6226 1.53864 11.5632C1.6044 11.5039 1.68134 11.4582 1.76495 11.4289C1.84857 11.3996 1.93718 11.3873 2.02562 11.3926C2.11406 11.398 2.20054 11.4209 2.28001 11.46L12 16.04L21.7133 11.4467C21.7935 11.409 21.8802 11.3875 21.9686 11.3834C22.057 11.3793 22.1454 11.3926 22.2286 11.4227C22.3119 11.4527 22.3884 11.4988 22.4539 11.5584C22.5193 11.618 22.5724 11.6899 22.61 11.77C22.6477 11.8501 22.6692 11.9369 22.6733 12.0253C22.6774 12.1137 22.6641 12.2021 22.6341 12.2853C22.604 12.3686 22.5579 12.4451 22.4983 12.5106C22.4387 12.576 22.3668 12.629 22.2867 12.6667L12.2867 17.3934C12.1957 17.4298 12.0978 17.4457 12 17.44Z" fill="#3377FF"/>
<path d="M12 21.3801C11.9007 21.3795 11.8027 21.3567 11.7134 21.3134L1.71335 16.5867C1.55668 16.5095 1.43656 16.374 1.37881 16.2091C1.32106 16.0443 1.3303 15.8634 1.40454 15.7053C1.47878 15.5472 1.61209 15.4246 1.77581 15.3638C1.93952 15.3029 2.12057 15.3088 2.28002 15.3801L12 20.0001L21.7134 15.4067C21.7928 15.3676 21.8793 15.3446 21.9678 15.3393C22.0562 15.334 22.1448 15.3463 22.2284 15.3756C22.312 15.4049 22.389 15.4505 22.4547 15.5099C22.5205 15.5693 22.5738 15.6412 22.6114 15.7214C22.6491 15.8016 22.6704 15.8885 22.6741 15.977C22.6778 16.0655 22.6638 16.1539 22.6329 16.2369C22.6021 16.32 22.555 16.396 22.4944 16.4607C22.4338 16.5253 22.3609 16.5772 22.28 16.6134L12.2867 21.3334C12.1957 21.3698 12.0978 21.3858 12 21.3801Z" fill="#3377FF"/>
</svg>
