<svg width="24" height="24" viewBox="0 0 24 24" fill="none" xmlns="http://www.w3.org/2000/svg">
<path d="M12 16C14.6 16 16.6667 13.9334 16.6667 11.3334V6.00004C16.6667 3.40004 14.6 1.33337 12 1.33337C9.40004 1.33337 7.33337 3.40004 7.33337 6.00004V11.3334C7.33337 13.9334 9.40004 16 12 16ZM8.66671 6.00004C8.66671 4.13337 10.1334 2.66671 12 2.66671C13.8667 2.66671 15.3334 4.13337 15.3334 6.00004V11.3334C15.3334 13.2 13.8667 14.6667 12 14.6667C10.1334 14.6667 8.66671 13.2 8.66671 11.3334V6.00004Z" fill="#3377FF"/>
<path d="M20 11.3334H18.6667C18.6667 15 15.6667 18 12 18C8.33333 18 5.33333 15 5.33333 11.3334H4C4 15.5334 7.2 18.9334 11.3333 19.2667V21.3334H9.33333C8.93333 21.3334 8.66667 21.6 8.66667 22C8.66667 22.4 8.93333 22.6667 9.33333 22.6667H14.6667C15.0667 22.6667 15.3333 22.4 15.3333 22C15.3333 21.6 15.0667 21.3334 14.6667 21.3334H12.6667V19.2667C16.8 18.9334 20 15.5334 20 11.3334Z" fill="#3377FF"/>
</svg>
