<svg width="24" height="24" viewBox="0 0 24 24" fill="none" xmlns="http://www.w3.org/2000/svg">
<g clip-path="url(#clip0_106_1070)">
<path d="M6.61963 5.13257L17.3806 8.47303" stroke="#3377FF" stroke-width="1.5" stroke-linecap="round" stroke-linejoin="round"/>
<path d="M6.43384 16.5277L17.2858 19.8965" stroke="#3377FF" stroke-width="1.5" stroke-linecap="round" stroke-linejoin="round"/>
<path d="M6.37109 13.7922L17.5651 10.6713" stroke="#3377FF" stroke-width="1.5" stroke-linecap="round" stroke-linejoin="round"/>
<path fill-rule="evenodd" clip-rule="evenodd" d="M3.75 7.16873C5.40685 7.16873 6.75 5.85833 6.75 4.24189C6.75 2.62545 5.40685 1.31506 3.75 1.31506C2.09315 1.31506 0.75 2.62545 0.75 4.24189C0.75 5.85833 2.09315 7.16873 3.75 7.16873Z" stroke="#3377FF" stroke-width="1.5" stroke-linecap="round" stroke-linejoin="round"/>
<path fill-rule="evenodd" clip-rule="evenodd" d="M3.75 18.1443C5.40685 18.1443 6.75 16.8339 6.75 15.2175C6.75 13.6011 5.40685 12.2906 3.75 12.2906C2.09315 12.2906 0.75 13.6011 0.75 15.2175C0.75 16.8339 2.09315 18.1443 3.75 18.1443Z" stroke="#3377FF" stroke-width="1.5" stroke-linecap="round" stroke-linejoin="round"/>
<path fill-rule="evenodd" clip-rule="evenodd" d="M20.25 12.2908C21.9068 12.2908 23.25 10.9804 23.25 9.36396C23.25 7.74753 21.9068 6.43713 20.25 6.43713C18.5932 6.43713 17.25 7.74753 17.25 9.36396C17.25 10.9804 18.5932 12.2908 20.25 12.2908Z" stroke="#3377FF" stroke-width="1.5" stroke-linecap="round" stroke-linejoin="round"/>
<path fill-rule="evenodd" clip-rule="evenodd" d="M20.25 23.2664C21.9068 23.2664 23.25 21.956 23.25 20.3395C23.25 18.7231 21.9068 17.4127 20.25 17.4127C18.5932 17.4127 17.25 18.7231 17.25 20.3395C17.25 21.956 18.5932 23.2664 20.25 23.2664Z" stroke="#3377FF" stroke-width="1.5" stroke-linecap="round" stroke-linejoin="round"/>
</g>
<defs>
<clipPath id="clip0_106_1070">
<rect width="24" height="24" fill="white"/>
</clipPath>
</defs>
</svg>
