<svg width="24" height="24" viewBox="0 0 24 24" fill="none" xmlns="http://www.w3.org/2000/svg">
<path fill-rule="evenodd" clip-rule="evenodd" d="M6.06036 13.7654L2.43836 12.5573C2.19173 12.4754 2.00518 12.2715 1.94547 12.0186C1.88576 11.7657 1.96141 11.4999 2.14536 11.3163L2.37736 11.0843C3.98423 9.47716 6.36126 8.9158 8.51736 9.63436L9.77238 10.0523L6.06036 13.7654Z" stroke="#3377FF" stroke-width="1.5" stroke-linecap="round" stroke-linejoin="round"/>
<path fill-rule="evenodd" clip-rule="evenodd" d="M10.3003 18.0071L11.5083 21.6292C11.5902 21.8758 11.7941 22.0624 12.047 22.1221C12.3 22.1818 12.5658 22.1061 12.7493 21.9221L12.9823 21.6902C14.5892 20.0831 15.1501 17.7061 14.4313 15.5501L14.0153 14.3002L10.3003 18.0071Z" stroke="#3377FF" stroke-width="1.5" stroke-linecap="round" stroke-linejoin="round"/>
<path d="M7.77917 18.5383C7.77995 19.1351 7.54283 19.7078 7.12019 20.1293C6.24221 21.0073 1.82019 22.2503 1.82019 22.2503C1.82019 22.2503 3.06319 17.8253 3.94119 16.9503C4.32688 16.5637 4.84023 16.3308 5.38519 16.2953" stroke="#3377FF" stroke-width="1.5" stroke-linecap="round" stroke-linejoin="round"/>
<path fill-rule="evenodd" clip-rule="evenodd" d="M22.5002 1.56714L20.3422 1.80714C18.6496 1.99527 17.0714 2.75386 15.8672 3.95814L6.06018 13.7651L10.3002 18.0071L20.1092 8.20013C21.3139 6.99623 22.0725 5.41789 22.2602 3.72513L22.5002 1.56714Z" stroke="#3377FF" stroke-width="1.5" stroke-linecap="round" stroke-linejoin="round"/>
</svg>
