<svg width="24" height="24" viewBox="0 0 24 24" fill="none" xmlns="http://www.w3.org/2000/svg">
<path d="M12.0667 7.33337C9.46669 7.33337 7.40002 9.40004 7.40002 12C7.40002 14.6 9.46669 16.6667 12.0667 16.6667C14.6667 16.6667 16.7334 14.6 16.7334 12C16.7334 9.40004 14.6667 7.33337 12.0667 7.33337ZM12.0667 15.3334C10.2 15.3334 8.73336 13.8667 8.73336 12C8.73336 10.1334 10.2 8.66671 12.0667 8.66671C13.9334 8.66671 15.4 10.1334 15.4 12C15.4 13.8667 13.9334 15.3334 12.0667 15.3334Z" fill="#3377FF"/>
<path d="M21.8667 9.80004L20 9.20004L19.6 8.20004L20.5334 6.46671C20.7334 6.06671 20.6667 5.53337 20.3334 5.20004L18.7334 3.60004C18.4 3.26671 17.8667 3.20004 17.4667 3.40004L15.7334 4.33337L14.7334 3.93337L14.1334 2.06671C14 1.66671 13.6 1.33337 13.1334 1.33337H10.8667C10.4 1.33337 10 1.66671 9.93337 2.13337L9.33337 4.00004C8.93337 4.06671 8.60004 4.20004 8.26671 4.40004L6.53337 3.46671C6.13337 3.26671 5.60004 3.33337 5.26671 3.66671L3.66671 5.26671C3.33337 5.60004 3.26671 6.13337 3.46671 6.53337L4.33337 8.20004C4.20004 8.53337 4.06671 8.93337 3.93337 9.26671L2.06671 9.86671C1.66671 10 1.33337 10.4 1.33337 10.8667V13.1334C1.33337 13.6 1.66671 14 2.13337 14.1334L4.00004 14.7334L4.40004 15.7334L3.46671 17.4667C3.26671 17.8667 3.33337 18.4 3.66671 18.7334L5.26671 20.3334C5.60004 20.6667 6.13337 20.7334 6.53337 20.5334L8.26671 19.6L9.26671 20L9.86671 21.9334C10 22.3334 10.4 22.6667 10.8667 22.6667H13.1334C13.6 22.6667 14 22.3334 14.1334 21.9334L14.7334 20L15.7334 19.6L17.4667 20.5334C17.8667 20.7334 18.4 20.6667 18.7334 20.3334L20.3334 18.7334C20.6667 18.4 20.7334 17.8667 20.5334 17.4667L19.6 15.7334L20 14.7334L21.9334 14.1334C22.3334 14 22.6667 13.6 22.6667 13.1334V10.8667C22.6667 10.4 22.3334 9.93337 21.8667 9.80004ZM21.3334 12.9334L18.9334 13.6667L18.8667 14L18.2667 15.4L18.0667 15.7334L19.2667 17.9334L17.9334 19.2667L15.7334 18.0667L15.4 18.2667C14.9334 18.5334 14.4667 18.7334 14 18.8667L13.6667 18.9334L12.9334 21.3334H11.0667L10.3334 18.9334L10 18.8667L8.60004 18.2667L8.26671 18.0667L6.06671 19.2667L4.73337 17.9334L5.93337 15.7334L5.73337 15.4C5.46671 14.9334 5.26671 14.4667 5.13337 14L5.06671 13.6667L2.66671 12.9334V11.0667L4.93337 10.4L5.06671 10.0667C5.20004 9.53337 5.40004 9.06671 5.66671 8.60004L5.86671 8.26671L4.73337 6.06671L6.06671 4.73337L8.20004 5.93337L8.53337 5.73337C9.00004 5.46671 9.46671 5.26671 10 5.13337L10.3334 5.00004L11.0667 2.66671H12.9334L13.6667 5.00004L14 5.13337C14.4667 5.26671 14.9334 5.46671 15.4 5.73337L15.7334 5.93337L17.9334 4.73337L19.2667 6.06671L18.0667 8.26671L18.2667 8.60004C18.5334 9.06671 18.7334 9.53337 18.8667 10L18.9334 10.3334L21.3334 11.0667V12.9334Z" fill="#3377FF"/>
</svg>
