<svg width="24" height="24" viewBox="0 0 24 24" fill="none" xmlns="http://www.w3.org/2000/svg">
<path d="M20.8333 4.93333C19.3226 4.53014 17.8467 4.00623 16.42 3.36667C15.0163 2.75774 13.6612 2.04232 12.3666 1.22667L12 1L11.64 1.23333C10.3454 2.04899 8.99033 2.76441 7.58663 3.37333C6.15749 4.01096 4.67939 4.53264 3.16663 4.93333L2.66663 5.06V10.62C2.66663 19.5467 11.6866 22.8867 11.7733 22.92L12 23L12.2266 22.92C12.32 22.92 21.3333 19.5533 21.3333 10.62V5.06L20.8333 4.93333ZM20 10.62C20 17.9533 13.3333 21.0267 12 21.5733C10.6666 21.0267 3.99996 17.9467 3.99996 10.62V6.09333C5.40627 5.68904 6.7829 5.18784 8.11996 4.59333C9.45711 4.01533 10.7534 3.34712 12 2.59333C13.2465 3.34712 14.5428 4.01533 15.88 4.59333C17.217 5.18784 18.5936 5.68904 20 6.09333V10.62Z" fill="#3377FF"/>
</svg>
