<svg width="24" height="24" viewBox="0 0 24 24" fill="none" xmlns="http://www.w3.org/2000/svg">
<path d="M16.6666 7.99991V6.03324C16.6666 5.42041 16.5459 4.81357 16.3114 4.24739C16.0769 3.6812 15.7331 3.16675 15.2998 2.73341C14.8665 2.30007 14.352 1.95633 13.7858 1.72181C13.2196 1.48728 12.6128 1.36658 12 1.36658C11.3871 1.36658 10.7803 1.48728 10.2141 1.72181C9.64792 1.95633 9.13347 2.30007 8.70013 2.73341C8.26679 3.16675 7.92304 3.6812 7.68852 4.24739C7.454 4.81357 7.33329 5.42041 7.33329 6.03324V10.6999C7.33329 10.8767 7.40353 11.0463 7.52855 11.1713C7.65358 11.2963 7.82315 11.3666 7.99996 11.3666C8.17677 11.3666 8.34634 11.2963 8.47136 11.1713C8.59639 11.0463 8.66663 10.8767 8.66663 10.6999V9.33324H14V7.99991H8.66663V6.03324C8.66663 5.14919 9.01782 4.30134 9.64294 3.67622C10.2681 3.0511 11.1159 2.69991 12 2.69991C12.884 2.69991 13.7319 3.0511 14.357 3.67622C14.9821 4.30134 15.3333 5.14919 15.3333 6.03324V10.6666C15.3333 10.8434 15.4035 11.013 15.5286 11.138C15.6536 11.263 15.8231 11.3332 16 11.3332C16.1768 11.3332 16.3463 11.263 16.4714 11.138C16.5964 11.013 16.6666 10.8434 16.6666 10.6666V9.33324H20V21.3332H3.99996V9.33324H5.99996V7.99991H2.66663V21.3932C2.66663 21.731 2.80078 22.0548 3.03958 22.2936C3.27837 22.5324 3.60225 22.6666 3.93996 22.6666H20.06C20.3977 22.6666 20.7215 22.5324 20.9603 22.2936C21.1991 22.0548 21.3333 21.731 21.3333 21.3932V7.99991H16.6666Z" fill="#3377FF"/>
</svg>
