<svg width="24" height="24" viewBox="0 0 24 24" fill="none" xmlns="http://www.w3.org/2000/svg">
<path d="M8.00002 8.24663C8.00254 7.6535 7.80724 7.07645 7.44502 6.60677C7.0828 6.13709 6.57432 5.80157 6.00002 5.65329V3.33329C6.00002 3.15648 5.92978 2.98691 5.80476 2.86189C5.67973 2.73686 5.51016 2.66663 5.33335 2.66663C5.15654 2.66663 4.98697 2.73686 4.86195 2.86189C4.73692 2.98691 4.66669 3.15648 4.66669 3.33329V5.65329C4.08393 5.79286 3.56516 6.12464 3.19404 6.59512C2.82293 7.06561 2.62109 7.64739 2.62109 8.24663C2.62109 8.84586 2.82293 9.42764 3.19404 9.89813C3.56516 10.3686 4.08393 10.7004 4.66669 10.84V20.6666C4.66669 20.8434 4.73692 21.013 4.86195 21.138C4.98697 21.2631 5.15654 21.3333 5.33335 21.3333C5.51016 21.3333 5.67973 21.2631 5.80476 21.138C5.92978 21.013 6.00002 20.8434 6.00002 20.6666V10.84C6.57432 10.6917 7.0828 10.3562 7.44502 9.88648C7.80724 9.4168 8.00254 8.83976 8.00002 8.24663ZM5.33335 9.57996C5.06964 9.57996 4.81186 9.50176 4.59259 9.35525C4.37333 9.20874 4.20243 9.00051 4.10151 8.75687C4.0006 8.51324 3.97419 8.24515 4.02564 7.98651C4.07709 7.72786 4.20407 7.49029 4.39054 7.30382C4.57701 7.11735 4.81459 6.99036 5.07323 6.93891C5.33187 6.88747 5.59996 6.91387 5.8436 7.01479C6.08723 7.1157 6.29547 7.2866 6.44198 7.50587C6.58849 7.72513 6.66669 7.98292 6.66669 8.24663C6.66934 8.4234 6.63681 8.59893 6.57099 8.76301C6.50517 8.9271 6.40738 9.07645 6.2833 9.20239C6.15923 9.32833 6.01134 9.42833 5.84826 9.49659C5.68517 9.56484 5.51014 9.59998 5.33335 9.59996V9.57996Z" fill="#3377FF"/>
<path d="M21.3334 10.5533C21.3359 9.96016 21.1406 9.38312 20.7784 8.91344C20.4162 8.44375 19.9077 8.10824 19.3334 7.95996V3.33329C19.3334 3.15648 19.2632 2.98691 19.1381 2.86189C19.0131 2.73686 18.8435 2.66663 18.6667 2.66663C18.4899 2.66663 18.3203 2.73686 18.1953 2.86189C18.0703 2.98691 18.0001 3.15648 18.0001 3.33329V7.95996C17.4173 8.09952 16.8985 8.4313 16.5274 8.90179C16.1563 9.37228 15.9545 9.95405 15.9545 10.5533C15.9545 11.1525 16.1563 11.7343 16.5274 12.2048C16.8985 12.6753 17.4173 13.0071 18.0001 13.1466V20.6666C18.0001 20.8434 18.0703 21.013 18.1953 21.138C18.3203 21.2631 18.4899 21.3333 18.6667 21.3333C18.8435 21.3333 19.0131 21.2631 19.1381 21.138C19.2632 21.013 19.3334 20.8434 19.3334 20.6666V13.1466C19.9077 12.9983 20.4162 12.6628 20.7784 12.1931C21.1406 11.7235 21.3359 11.1464 21.3334 10.5533ZM18.6667 11.8866C18.403 11.8866 18.1452 11.8084 17.926 11.6619C17.7067 11.5154 17.5358 11.3072 17.4349 11.0635C17.334 10.8199 17.3076 10.5518 17.359 10.2932C17.4105 10.0345 17.5374 9.79695 17.7239 9.61048C17.9104 9.42401 18.148 9.29703 18.4066 9.24558C18.6652 9.19413 18.9333 9.22054 19.177 9.32145C19.4206 9.42237 19.6288 9.59327 19.7754 9.81253C19.9219 10.0318 20.0001 10.2896 20.0001 10.5533C20.0036 10.7306 19.9717 10.9069 19.9063 11.0717C19.8409 11.2366 19.7433 11.3867 19.6191 11.5134C19.4949 11.64 19.3467 11.7406 19.1832 11.8093C19.0197 11.878 18.8441 11.9133 18.6667 11.9133V11.8866Z" fill="#3377FF"/>
<path d="M14.6666 16.3333C14.6692 15.7402 14.4739 15.1631 14.1116 14.6934C13.7494 14.2238 13.2409 13.8882 12.6666 13.74V3.33329C12.6666 3.15648 12.5964 2.98691 12.4714 2.86189C12.3464 2.73686 12.1768 2.66663 12 2.66663C11.8232 2.66663 11.6536 2.73686 11.5286 2.86189C11.4036 2.98691 11.3333 3.15648 11.3333 3.33329V13.74C10.7506 13.8795 10.2318 14.2113 9.86067 14.6818C9.48955 15.1523 9.28772 15.7341 9.28772 16.3333C9.28772 16.9325 9.48955 17.5143 9.86067 17.9848C10.2318 18.4553 10.7506 18.7871 11.3333 18.9266V20.6666C11.3333 20.8434 11.4036 21.013 11.5286 21.138C11.6536 21.2631 11.8232 21.3333 12 21.3333C12.1768 21.3333 12.3464 21.2631 12.4714 21.138C12.5964 21.013 12.6666 20.8434 12.6666 20.6666V18.9266C13.2409 18.7783 13.7494 18.4428 14.1116 17.9731C14.4739 17.5035 14.6692 16.9264 14.6666 16.3333ZM12 17.6666C11.7363 17.6666 11.4785 17.5884 11.2592 17.4419C11.04 17.2954 10.8691 17.0872 10.7681 16.8435C10.6672 16.5999 10.6408 16.3318 10.6923 16.0732C10.7437 15.8145 10.8707 15.577 11.0572 15.3905C11.2436 15.204 11.4812 15.077 11.7399 15.0256C11.9985 14.9741 12.2666 15.0005 12.5102 15.1015C12.7539 15.2024 12.9621 15.3733 13.1086 15.5925C13.2551 15.8118 13.3333 16.0696 13.3333 16.3333C13.336 16.5101 13.3034 16.6856 13.2376 16.8497C13.1718 17.0138 13.074 17.1631 12.9499 17.2891C12.8259 17.415 12.678 17.515 12.5149 17.5833C12.3518 17.6515 12.1768 17.6866 12 17.6866V17.6666Z" fill="#3377FF"/>
</svg>
