<svg width="24" height="24" viewBox="0 0 24 24" fill="none" xmlns="http://www.w3.org/2000/svg">
<path d="M22 4.46003C21.88 2.1867 15.6867 1.57336 12 1.57336C8.31333 1.57336 2 2.19336 2 4.52003V19.58C2 21.9067 8.28667 22.5334 12 22.5334C15.7133 22.5334 22 21.9134 22 19.58V4.52003V4.46003ZM20.6667 9.50003C20.4467 10.0734 17.2933 11.1334 12 11.1334C9.52412 11.1965 7.05261 10.891 4.66667 10.2267V11.6134C7.06454 12.2104 9.52912 12.4972 12 12.4667C14.6667 12.4667 18.62 12.1467 20.6667 11.1334V14.58C20.4467 15.1534 17.2933 16.2134 12 16.2134C9.52278 16.2679 7.05125 15.9533 4.66667 15.28V16.6667C7.06454 17.2637 9.52912 17.5505 12 17.52C14.6667 17.52 18.62 17.2 20.6667 16.1867V19.5867C20.4333 20.16 17.28 21.22 12 21.22C6.72 21.22 3.53333 20.1334 3.33333 19.58V4.5467C3.53333 4.00003 6.66667 2.9067 12 2.9067C17.18 2.9067 20.3067 3.9267 20.6667 4.4867C20.32 5.0667 17.1933 6.08003 12 6.08003C9.52419 6.14173 7.0529 5.83619 4.66667 5.17336V6.5667C7.0651 7.15994 9.52948 7.44447 12 7.41336C14.6667 7.41336 18.62 7.09336 20.6667 6.08003V9.50003Z" fill="#3377FF"/>
</svg>
