<svg width="24" height="24" viewBox="0 0 24 24" fill="none" xmlns="http://www.w3.org/2000/svg">
<path d="M7.01327 7.9666C7.53978 7.9666 7.9666 7.53978 7.9666 7.01327C7.9666 6.48676 7.53978 6.05994 7.01327 6.05994C6.48676 6.05994 6.05994 6.48676 6.05994 7.01327C6.05994 7.53978 6.48676 7.9666 7.01327 7.9666Z" fill="#3377FF"/>
<path d="M21.2866 12.8L11.5533 3.06663C11.4306 2.94143 11.2844 2.84167 11.1231 2.77303C10.9618 2.70439 10.7886 2.66824 10.6133 2.66663H3.99996C3.64634 2.66663 3.3072 2.8071 3.05715 3.05715C2.8071 3.3072 2.66663 3.64634 2.66663 3.99996V10.6133C2.66811 10.9663 2.80957 11.3044 3.05996 11.5533L12.7933 21.2866C12.9171 21.4106 13.0642 21.5089 13.226 21.576C13.3879 21.6431 13.5614 21.6777 13.7366 21.6777C13.9118 21.6777 14.0853 21.6431 14.2472 21.576C14.4091 21.5089 14.5561 21.4106 14.68 21.2866L21.28 14.6866C21.4044 14.5632 21.5032 14.4165 21.5709 14.2549C21.6386 14.0933 21.6737 13.9199 21.6743 13.7447C21.675 13.5695 21.641 13.3958 21.5745 13.2337C21.508 13.0716 21.4102 12.9242 21.2866 12.8ZM13.7466 20.3466L3.99996 10.6066V3.99996H10.6133L20.3466 13.7466L13.7466 20.3466Z" fill="#3377FF"/>
</svg>
