<svg width="24" height="24" viewBox="0 0 24 24" fill="none" xmlns="http://www.w3.org/2000/svg">
<path d="M15.9999 17.3333C14.0533 18.5467 11.1333 20 9.75327 20H5.75327C4.74236 18.8181 3.99061 17.4372 3.54661 15.9467C2.9889 14.2411 2.69222 12.461 2.66661 10.6667H8.66661V4C8.69148 3.75374 8.78275 3.51886 8.9307 3.32043C9.07864 3.122 9.27769 2.96747 9.50661 2.87334C10.0199 4.20667 11.2533 7.25334 12.3266 8.68667C13.2621 9.89968 14.5426 10.8014 15.9999 11.2733V9.85334C14.9641 9.43822 14.0624 8.74634 13.3933 7.85334C12.1399 6.18 10.5333 1.78 10.5199 1.74C10.4612 1.58625 10.3477 1.45964 10.2012 1.38456C10.0548 1.30948 9.88572 1.29124 9.72661 1.33334C8.83327 1.58667 7.33327 2.4 7.33327 4V9.33334H1.99994C1.82313 9.33334 1.65356 9.40357 1.52854 9.5286C1.40351 9.65362 1.33328 9.82319 1.33328 10C1.28131 12.1751 1.59685 14.3433 2.26661 16.4133C3.52661 20.0133 4.99994 21.1733 5.06661 21.2267C5.18297 21.317 5.32598 21.3662 5.47327 21.3667H9.75327C11.3733 21.3667 14.1199 20.0333 15.9999 18.9467V17.3333Z" fill="#3377FF"/>
<path d="M22.6667 20.6666H18C17.8232 20.6666 17.6537 20.5964 17.5286 20.4714C17.4036 20.3463 17.3334 20.1768 17.3334 20V9.33329C17.3334 9.15648 17.4036 8.98691 17.5286 8.86189C17.6537 8.73686 17.8232 8.66663 18 8.66663H22.6667V20.6666ZM18.6667 19.3333H21.3334V9.99996H18.6667V19.3333Z" fill="#3377FF"/>
</svg>
