<svg width="24" height="24" viewBox="0 0 24 24" fill="none" xmlns="http://www.w3.org/2000/svg">
<path d="M12.9399 12.0001L18.4666 6.47342C18.5758 6.34588 18.6329 6.18183 18.6264 6.01405C18.6199 5.84626 18.5504 5.6871 18.4317 5.56837C18.3129 5.44964 18.1538 5.38009 17.986 5.37361C17.8182 5.36713 17.6541 5.4242 17.5266 5.53342L11.9999 11.0601L6.47327 5.52675C6.34774 5.40121 6.17748 5.33069 5.99994 5.33069C5.82241 5.33069 5.65214 5.40121 5.52661 5.52675C5.40107 5.65229 5.33055 5.82255 5.33055 6.00008C5.33055 6.17762 5.40107 6.34788 5.52661 6.47342L11.0599 12.0001L5.52661 17.5268C5.45682 17.5865 5.40014 17.6601 5.36012 17.7428C5.32011 17.8255 5.29762 17.9156 5.29408 18.0074C5.29053 18.0992 5.306 18.1907 5.33952 18.2763C5.37303 18.3618 5.42387 18.4395 5.48884 18.5045C5.55381 18.5695 5.63151 18.6203 5.71706 18.6538C5.80261 18.6874 5.89416 18.7028 5.98598 18.6993C6.07779 18.6957 6.16788 18.6732 6.25059 18.6332C6.3333 18.5932 6.40684 18.5365 6.46661 18.4668L11.9999 12.9401L17.5266 18.4668C17.6541 18.576 17.8182 18.633 17.986 18.6266C18.1538 18.6201 18.3129 18.5505 18.4317 18.4318C18.5504 18.3131 18.6199 18.1539 18.6264 17.9861C18.6329 17.8183 18.5758 17.6543 18.4666 17.5268L12.9399 12.0001Z" fill="#3377FF"/>
</svg>
