<svg width="24" height="24" viewBox="0 0 24 24" fill="none" xmlns="http://www.w3.org/2000/svg">
<path d="M18.0933 22.6667H5.90663C5.65009 22.6606 5.39726 22.6041 5.16258 22.5003C4.9279 22.3965 4.71598 22.2475 4.53891 22.0617C4.36185 21.876 4.22311 21.6572 4.13064 21.4178C4.03816 21.1785 3.99376 20.9232 3.99996 20.6667V7.48669H5.33329V20.6667C5.32693 20.7482 5.33673 20.8301 5.36214 20.9077C5.38755 20.9854 5.42805 21.0573 5.48134 21.1192C5.53462 21.1812 5.59962 21.232 5.67261 21.2688C5.74559 21.3055 5.82513 21.3275 5.90663 21.3334H18.0933C18.1748 21.3275 18.2543 21.3055 18.3273 21.2688C18.4003 21.232 18.4653 21.1812 18.5186 21.1192C18.5719 21.0573 18.6124 20.9854 18.6378 20.9077C18.6632 20.8301 18.673 20.7482 18.6666 20.6667V7.48669H20V20.6667C20.0062 20.9232 19.9618 21.1785 19.8693 21.4178C19.7768 21.6572 19.6381 21.876 19.461 22.0617C19.2839 22.2475 19.072 22.3965 18.8373 22.5003C18.6027 22.6041 18.3498 22.6606 18.0933 22.6667Z" fill="#3377FF"/>
<path d="M20.52 5.99996H3.33329C3.15648 5.99996 2.98691 5.92972 2.86189 5.8047C2.73686 5.67967 2.66663 5.5101 2.66663 5.33329C2.66663 5.15648 2.73686 4.98691 2.86189 4.86189C2.98691 4.73686 3.15648 4.66663 3.33329 4.66663H20.52C20.6968 4.66663 20.8663 4.73686 20.9914 4.86189C21.1164 4.98691 21.1866 5.15648 21.1866 5.33329C21.1866 5.5101 21.1164 5.67967 20.9914 5.8047C20.8663 5.92972 20.6968 5.99996 20.52 5.99996Z" fill="#3377FF"/>
<path d="M14 8.66663H15.3333V18.6666H14V8.66663Z" fill="#3377FF"/>
<path d="M8.66663 8.66663H9.99996V18.6666H8.66663V8.66663Z" fill="#3377FF"/>
<path d="M15.3333 3.90671H14.0666V2.66671H9.93329V3.90671H8.66663V2.66671C8.6662 2.32434 8.79749 1.99492 9.03329 1.74671C9.2691 1.49849 9.59135 1.35049 9.93329 1.33337H14.0666C14.4086 1.35049 14.7308 1.49849 14.9666 1.74671C15.2024 1.99492 15.3337 2.32434 15.3333 2.66671V3.90671Z" fill="#3377FF"/>
</svg>
