<svg width="24" height="24" viewBox="0 0 24 24" fill="none" xmlns="http://www.w3.org/2000/svg">
<path d="M15.6066 16.74C15.4609 16.742 15.3186 16.6961 15.2014 16.6094C15.0842 16.5228 14.9986 16.4001 14.9578 16.2602C14.9169 16.1203 14.9231 15.9709 14.9752 15.8348C15.0274 15.6987 15.1227 15.5834 15.2466 15.5067C15.8533 15.128 16.3515 14.5987 16.6927 13.9703C17.034 13.3419 17.2066 12.6358 17.1939 11.9208C17.1811 11.2058 16.9834 10.5063 16.6199 9.89049C16.2565 9.27465 15.7397 8.76344 15.12 8.40668C15.0403 8.365 14.9699 8.30764 14.913 8.23805C14.856 8.16845 14.8138 8.08806 14.7887 8.00171C14.7637 7.91535 14.7564 7.82483 14.7672 7.73557C14.778 7.64631 14.8068 7.56017 14.8518 7.48233C14.8968 7.40449 14.9571 7.33655 15.029 7.28261C15.101 7.22866 15.1831 7.18983 15.2704 7.16843C15.3577 7.14704 15.4485 7.14354 15.5372 7.15813C15.6259 7.17272 15.7108 7.20511 15.7866 7.25335C16.6124 7.72281 17.3017 8.39906 17.7869 9.21563C18.272 10.0322 18.5364 10.961 18.5539 11.9107C18.5713 12.8603 18.3414 13.7982 17.8866 14.6321C17.4318 15.466 16.7678 16.1671 15.96 16.6667C15.8512 16.7231 15.7289 16.7485 15.6066 16.74Z" fill="#3377FF"/>
<path d="M12 21.3333C11.8241 21.3334 11.6499 21.2988 11.4874 21.2312C11.3249 21.1637 11.1774 21.0647 11.0534 20.94L6.09337 16H2.66671C2.31309 16 1.97395 15.8595 1.7239 15.6094C1.47385 15.3594 1.33337 15.0203 1.33337 14.6666V9.3333C1.33337 8.97968 1.47385 8.64054 1.7239 8.39049C1.97395 8.14044 2.31309 7.99997 2.66671 7.99997H6.14671L11.0334 3.05997C11.2183 2.86526 11.4576 2.73092 11.7202 2.67452C11.9827 2.61812 12.2561 2.6423 12.5046 2.74388C12.7532 2.84546 12.9653 3.01971 13.1132 3.24383C13.261 3.46795 13.3378 3.7315 13.3334 3.99997V20C13.3334 20.2643 13.2548 20.5227 13.1076 20.7423C12.9604 20.9619 12.7512 21.1328 12.5067 21.2333C12.346 21.2993 12.1738 21.3333 12 21.3333ZM2.66671 9.3333V14.6666H6.37337C6.54963 14.6638 6.71981 14.7309 6.84671 14.8533L12 20V3.99997L6.90004 9.11997C6.8383 9.18296 6.76467 9.23307 6.68342 9.2674C6.60217 9.30173 6.51491 9.3196 6.42671 9.31997L2.66671 9.3333Z" fill="#3377FF"/>
</svg>
