<svg width="24" height="24" viewBox="0 0 24 24" fill="none" xmlns="http://www.w3.org/2000/svg">
<path d="M10.6666 2.66663C9.08438 2.66663 7.53766 3.13582 6.22207 4.01487C4.90648 4.89392 3.88109 6.14335 3.27559 7.60516C2.67009 9.06697 2.51167 10.6755 2.82035 12.2273C3.12903 13.7792 3.89096 15.2047 5.00978 16.3235C6.1286 17.4423 7.55406 18.2042 9.10591 18.5129C10.6578 18.8216 12.2663 18.6632 13.7281 18.0577C15.1899 17.4522 16.4393 16.4268 17.3184 15.1112C18.1974 13.7956 18.6666 12.2489 18.6666 10.6666C18.6666 8.54489 17.8238 6.51006 16.3235 5.00977C14.8232 3.50948 12.7884 2.66663 10.6666 2.66663ZM10.6666 17.2733C9.34554 17.2732 8.05426 16.8807 6.95667 16.1455C5.85908 15.4102 5.00467 14.3655 4.5019 13.1438C3.99913 11.9221 3.87066 10.5786 4.13279 9.2838C4.39493 7.98898 5.03585 6.80124 5.97421 5.87132C6.91257 4.9414 8.10606 4.31124 9.4032 4.06083C10.7003 3.81041 12.0426 3.95102 13.2597 4.46482C14.4768 4.97861 15.5138 5.84243 16.239 6.94662C16.9643 8.05081 17.3452 9.34559 17.3333 10.6666C17.3175 12.4243 16.6081 14.1046 15.3596 15.3419C14.1111 16.5792 12.4244 17.2734 10.6666 17.2733Z" fill="#3377FF"/>
<path d="M21.1399 19.7933L17.6933 16.3467C17.4092 16.6981 17.0995 17.0279 16.7666 17.3333L20.1999 20.7667C20.3275 20.8759 20.4915 20.933 20.6593 20.9265C20.8271 20.92 20.9862 20.8505 21.105 20.7317C21.2237 20.613 21.2933 20.4538 21.2997 20.286C21.3062 20.1183 21.2492 19.9542 21.1399 19.8267V19.7933Z" fill="#3377FF"/>
<path d="M14 9.99996H11.3333V7.33329C11.3333 7.15648 11.2631 6.98691 11.138 6.86189C11.013 6.73686 10.8434 6.66663 10.6666 6.66663C10.4898 6.66663 10.3202 6.73686 10.1952 6.86189C10.0702 6.98691 9.99996 7.15648 9.99996 7.33329V9.99996H7.33329C7.15648 9.99996 6.98691 10.0702 6.86189 10.1952C6.73686 10.3202 6.66663 10.4898 6.66663 10.6666C6.66663 10.8434 6.73686 11.013 6.86189 11.138C6.98691 11.2631 7.15648 11.3333 7.33329 11.3333H9.99996V14C9.99996 14.1768 10.0702 14.3463 10.1952 14.4714C10.3202 14.5964 10.4898 14.6666 10.6666 14.6666C10.8434 14.6666 11.013 14.5964 11.138 14.4714C11.2631 14.3463 11.3333 14.1768 11.3333 14V11.3333H14C14.1768 11.3333 14.3463 11.2631 14.4714 11.138C14.5964 11.013 14.6666 10.8434 14.6666 10.6666C14.6666 10.4898 14.5964 10.3202 14.4714 10.1952C14.3463 10.0702 14.1768 9.99996 14 9.99996Z" fill="#3377FF"/>
</svg>
